<svg width="49" height="47" viewBox="0 0 49 47" fill="none" xmlns="http://www.w3.org/2000/svg">
<path d="M38.0625 47C40.9633 47 43.7453 45.8477 45.7965 43.7965C47.8477 41.7453 49 38.9633 49 36.0625C49 33.1617 47.8477 30.3797 45.7965 28.3285C43.7453 26.2773 40.9633 25.125 38.0625 25.125C35.1617 25.125 32.3797 26.2773 30.3285 28.3285C28.2773 30.3797 27.125 33.1617 27.125 36.0625C27.125 38.9633 28.2773 41.7453 30.3285 43.7965C32.3797 45.8477 35.1617 47 38.0625 47ZM39.1688 28.7062L43.8563 33.3937C44.1496 33.6871 44.3145 34.0851 44.3145 34.5C44.3145 34.9149 44.1496 35.3129 43.8563 35.6063C43.5629 35.8996 43.1649 36.0645 42.75 36.0645C42.3351 36.0645 41.9371 35.8996 41.6437 35.6063L39.625 33.5844V42.3125C39.625 42.7269 39.4604 43.1243 39.1674 43.4174C38.8743 43.7104 38.4769 43.875 38.0625 43.875C37.6481 43.875 37.2507 43.7104 36.9576 43.4174C36.6646 43.1243 36.5 42.7269 36.5 42.3125V33.5844L34.4813 35.6063C34.1883 35.8996 33.7907 36.0646 33.3761 36.0649C32.9615 36.0652 32.5637 35.9008 32.2703 35.6078C31.9769 35.3148 31.8119 34.9173 31.8116 34.5027C31.8113 34.088 31.9758 33.6903 32.2687 33.3969L36.9562 28.7094C37.1014 28.5639 37.2738 28.4484 37.4636 28.3696C37.6535 28.2909 37.857 28.2503 38.0625 28.2503C38.268 28.2503 38.4715 28.2909 38.6614 28.3696C38.8512 28.4484 39.0236 28.5639 39.1688 28.7094V28.7062Z" fill="#A92A1D"/>
<path d="M26.2094 1.68754C25.6233 1.10169 24.8286 0.772583 24 0.772583C23.1714 0.772583 22.3766 1.10169 21.7906 1.68754L1.01874 22.4563C0.873465 22.6016 0.758227 22.774 0.679605 22.9638C0.600983 23.1537 0.560516 23.3571 0.560516 23.5625C0.560516 23.768 0.600983 23.9714 0.679605 24.1612C0.758227 24.351 0.873465 24.5235 1.01874 24.6688C1.31214 24.9622 1.71007 25.127 2.12499 25.127C2.33044 25.127 2.53388 25.0865 2.72369 25.0079C2.9135 24.9293 3.08597 24.8141 3.23124 24.6688L24 3.89692L44.7687 24.6688C45.0621 24.9622 45.4601 25.127 45.875 25.127C46.2899 25.127 46.6878 24.9622 46.9812 24.6688C47.2746 24.3754 47.4395 23.9775 47.4395 23.5625C47.4395 23.1476 47.2746 22.7497 46.9812 22.4563L39.625 15.1032V4.81254C39.625 4.39814 39.4604 4.00071 39.1673 3.70769C38.8743 3.41466 38.4769 3.25004 38.0625 3.25004H34.9375C34.5231 3.25004 34.1257 3.41466 33.8326 3.70769C33.5396 4.00071 33.375 4.39814 33.375 4.81254V8.85316L26.2094 1.68754Z" fill="#A92A1D"/>
<path d="M24 7.29065L38.725 22.0156C36.125 21.8928 33.5419 22.494 31.2634 23.7523C28.9848 25.0106 27.1002 26.8766 25.8193 29.1425C24.5385 31.4085 23.9117 33.9854 24.0087 36.5865C24.1057 39.1876 24.9227 41.7108 26.3688 43.875H9.9375C8.6943 43.875 7.50201 43.3812 6.62294 42.5021C5.74386 41.623 5.25 40.4307 5.25 39.1875V26.0406L24 7.29065Z" fill="#A92A1D"/>
</svg>
