<svg width="43" height="43" fill="none" xmlns="http://www.w3.org/2000/svg"><path fill="#292929" d="M0 0h43v43H0z"/><path d="M21.35 12c2.54 0 2.858.01 3.855.056.995.047 1.673.203 2.27.435a4.562 4.562 0 011.657 1.078 4.597 4.597 0 011.078 1.657c.23.595.388 1.274.434 2.27.044.997.056 1.314.056 3.854s-.009 2.858-.056 3.854c-.046.996-.203 1.674-.434 2.27a4.57 4.57 0 01-1.078 1.657 4.603 4.603 0 01-1.657 1.079c-.596.23-1.275.387-2.27.434-.997.044-1.314.056-3.855.056-2.54 0-2.857-.009-3.854-.056-.996-.046-1.674-.203-2.27-.434a4.58 4.58 0 01-1.657-1.079 4.595 4.595 0 01-1.078-1.656c-.232-.596-.389-1.275-.435-2.27-.044-.997-.056-1.314-.056-3.855 0-2.54.009-2.857.056-3.854.046-.997.203-1.674.435-2.27a4.569 4.569 0 011.078-1.657 4.584 4.584 0 011.656-1.078c.597-.232 1.274-.388 2.27-.435.998-.044 1.315-.056 3.855-.056zm0 4.675a4.674 4.674 0 100 9.348 4.674 4.674 0 000-9.348zm6.078-.234a1.169 1.169 0 10-2.338.001 1.169 1.169 0 002.338 0zm-6.078 2.104a2.806 2.806 0 110 5.612 2.806 2.806 0 010-5.612z" fill="#E74C3C"/></svg>