<svg width="43" height="43" fill="none" xmlns="http://www.w3.org/2000/svg"><path fill="#292929" d="M0 0h43v43H0z"/><path d="M32.999 14.22a9.46 9.46 0 01-2.71.742 4.734 4.734 0 002.076-2.61 9.46 9.46 0 01-2.997 1.145 4.719 4.719 0 00-8.04 4.303 13.397 13.397 0 01-9.727-4.93 4.718 4.718 0 001.46 6.3 4.702 4.702 0 01-2.137-.59v.059a4.722 4.722 0 003.786 4.627 4.75 4.75 0 01-2.133.081 4.722 4.722 0 004.408 3.278A9.472 9.472 0 0110 28.579a13.348 13.348 0 007.233 2.121c8.68 0 13.427-7.19 13.427-13.427 0-.203-.006-.408-.015-.61A9.588 9.588 0 0033 14.222l-.001-.001z" fill="#E74C3C"/></svg>